<svg xmlns="http://www.w3.org/2000/svg" xmlns:svg="http://www.w3.org/2000/svg" xmlns:xlink="http://www.w3.org/1999/xlink" id="svg64" width="800" height="430" version="1.1" viewBox="0 0 800 430"><metadata id="metadata68"/><defs id="defs52"><linearGradient id="a" x1="400" x2="400" y1="430" gradientUnits="userSpaceOnUse"><stop id="stop40" offset=".41" stop-color="#202020"/><stop id="stop42" offset=".84" stop-color="#3d3c3c"/></linearGradient><linearGradient id="b" x1="399.9" x2="399.9" y1="136.52" y2="240.55" gradientUnits="userSpaceOnUse"><stop id="stop45" offset="0" stop-color="#1f1f1f"/><stop id="stop47" offset="1" stop-color="#171717"/></linearGradient><linearGradient id="c" x1="479.32" x2="479.32" y1="197.69" y2="240.55" xlink:href="#b"/><linearGradient id="d" x1="320.43" x2="320.43" y1="136.54" y2="179.41" xlink:href="#b"/></defs><title id="title54">uiBackground</title><rect id="rect56" style="fill:url(#a)" width="800" height="430"/><path id="path58" style="fill:url(#b)" d="M451.44,141.5c-.07-2.25-1-3.55-2.73-3.93h-24.2q-3.6.09-3.71,4.06v50.44l-33.72-54a5,5,0,0,0-3.05-1.5l-.9-.07H351.68q-3.19.28-3.33,4v95.06c.08,2.25,1,3.56,2.73,3.93h24.2q3.6-.09,3.71-4.06V185l33.72,54a5,5,0,0,0,3.05,1.51c.29,0,.59,0,.9.06h31.45q3.19-.28,3.33-4Z"/><path id="path60" style="fill:url(#c)" d="M496.34,228.3s0,0,0,0l-36.67-30.57v38.87c.07,2.47,1.18,3.8,3.31,4h30.25a5.45,5.45,0,0,0,4.05-2,7.24,7.24,0,0,0,0-9.46,3.59,3.59,0,0,0-.39-.39l-.06-.06,0,0Z"/><path id="path62" style="fill:url(#d)" d="M303.41,148.79l0,.05,36.67,30.57V140.54c-.07-2.48-1.18-3.81-3.31-4H306.56a5.49,5.49,0,0,0-4.05,2,6.81,6.81,0,0,0-1.76,4.72,6.91,6.91,0,0,0,1.76,4.74q.19.21.39.39l.06.06,0,0A4.12,4.12,0,0,0,303.41,148.79Z"/></svg>